<?xml version="1.0" standalone="no"?>
<!DOCTYPE svg PUBLIC "-//W3C//DTD SVG 20010904//EN"
 "http://www.w3.org/TR/2001/REC-SVG-20010904/DTD/svg10.dtd">
<svg version="1.0" xmlns="http://www.w3.org/2000/svg"
 width="2500.000000pt" height="2500.000000pt" viewBox="0 0 2500.000000 2500.000000"
 preserveAspectRatio="xMidYMid meet">

<g transform="translate(0.000000,2500.000000) scale(0.100000,-0.100000)"
fill="#FFFF00" stroke="none">
<path d="M12335 24401 c-38 -11 -91 -28 -118 -40 -110 -47 -236 -158 -304
-266 -17 -27 -763 -1710 -1658 -3740 -895 -2029 -1630 -3693 -1634 -3697 -3
-3 -1810 -189 -4016 -412 -2206 -224 -4041 -414 -4079 -423 -189 -44 -362
-184 -449 -363 -50 -103 -77 -210 -77 -310 0 -140 62 -319 147 -426 23 -28
1398 -1264 3057 -2748 1659 -1484 3016 -2704 3016 -2711 0 -7 -383 -1783 -851
-3946 -556 -2570 -853 -3962 -856 -4015 -8 -113 16 -225 74 -343 134 -279 460
-434 766 -365 100 23 143 43 387 186 118 69 420 244 670 390 250 146 1720
1001 3265 1901 1546 899 2815 1637 2820 1639 6 2 1583 -912 3505 -2031 2721
-1585 3513 -2042 3580 -2065 78 -28 95 -30 215 -30 113 0 140 4 210 27 111 37
197 90 279 173 83 83 136 168 173 279 23 69 27 97 27 205 l0 125 -852 3932
c-469 2163 -852 3939 -851 3945 0 7 67 72 147 144 81 71 1441 1287 3022 2700
2231 1995 2885 2584 2918 2632 204 292 168 664 -88 905 -131 124 -242 169
-488 197 -92 10 -1908 195 -4037 410 -2128 216 -3873 395 -3876 399 -4 3 -739
1667 -1634 3696 -894 2030 -1641 3713 -1658 3740 -82 130 -228 245 -371 291
-111 36 -279 43 -381 15z m1540 -5509 c753 -1709 1389 -3147 1413 -3195 69
-139 205 -270 339 -328 91 -39 160 -50 643 -99 267 -27 1396 -142 2510 -255
3935 -399 3882 -394 3885 -397 2 -2 -1144 -1029 -2547 -2283 -1402 -1254
-2578 -2310 -2612 -2346 -75 -78 -115 -146 -152 -254 -24 -69 -28 -96 -28
-200 l-1 -120 729 -3367 c401 -1853 727 -3370 724 -3373 -3 -3 -1319 759
-2924 1693 -1606 934 -2953 1718 -2994 1741 -204 116 -435 133 -630 45 -33
-15 -1400 -807 -3038 -1759 -1637 -953 -2978 -1732 -2979 -1731 0 0 327 1518
729 3371 706 3256 731 3374 732 3480 0 62 -5 134 -13 165 -22 91 -94 229 -154
295 -30 34 -1207 1091 -2615 2350 -1409 1259 -2560 2291 -2558 2292 3 3 422
46 2021 208 407 42 848 86 980 100 132 13 485 49 785 80 300 30 721 73 935 95
215 21 638 64 940 95 1059 107 1220 125 1279 140 143 37 305 154 390 281 27
40 535 1180 1436 3223 767 1739 1397 3161 1400 3161 3 0 621 -1399 1375 -3108z"/>
</g>
</svg>
